<?xml version="1.0" encoding="UTF-8" standalone="no"?>
<svg
   xmlns:dc="http://purl.org/dc/elements/1.1/"
   xmlns:cc="http://creativecommons.org/ns#"
   xmlns:rdf="http://www.w3.org/1999/02/22-rdf-syntax-ns#"
   xmlns:svg="http://www.w3.org/2000/svg"
   xmlns="http://www.w3.org/2000/svg"
   xmlns:sodipodi="http://sodipodi.sourceforge.net/DTD/sodipodi-0.dtd"
   xmlns:inkscape="http://www.inkscape.org/namespaces/inkscape"
   version="1.0"
   width="491px"
   height="491px"
   viewBox="0 0 4910 4910"
   preserveAspectRatio="xMidYMid meet"
   id="svg3821"
   sodipodi:docname="NS_RGB.svg"
   inkscape:version="0.92.2 (5c3e80d, 2017-08-06)">
  <metadata
     id="metadata3827">
    <rdf:RDF>
      <cc:Work
         rdf:about="">
        <dc:format>image/svg+xml</dc:format>
        <dc:type
           rdf:resource="http://purl.org/dc/dcmitype/StillImage" />
      </cc:Work>
    </rdf:RDF>
  </metadata>
  <defs
     id="defs3825" />
  <sodipodi:namedview
     pagecolor="#ffffff"
     bordercolor="#666666"
     borderopacity="1"
     objecttolerance="10"
     gridtolerance="10"
     guidetolerance="10"
     inkscape:pageopacity="0"
     inkscape:pageshadow="2"
     inkscape:window-width="1350"
     inkscape:window-height="2371"
     id="namedview3823"
     showgrid="false"
     inkscape:zoom="2.4847251"
     inkscape:cx="245.5"
     inkscape:cy="245.5"
     inkscape:window-x="2391"
     inkscape:window-y="-9"
     inkscape:window-maximized="1"
     inkscape:current-layer="svg3821" />
  <path
     style="fill:#053e5a;stroke:none"
     inkscape:connector-curvature="0"
     id="path3777"
     d="m 2285,3850 c -252,-27 -503,-122 -709,-267 -182,-130 -375,-358 -471,-558 -255,-529 -172,-1160 210,-1609 214,-250 512,-421 848,-488 146,-29 386,-30 527,-3 547,103 978,480 1149,1002 53,163 66,249 66,453 0,137 -5,208 -18,273 -117,577 -547,1028 -1109,1162 -174,41 -330,52 -493,35 z m 397,-49 c 589,-101 1053,-559 1169,-1153 31,-158 31,-378 0,-536 -102,-523 -464,-934 -970,-1102 -171,-57 -299,-74 -501,-67 -240,8 -394,48 -605,155 -258,132 -498,370 -626,623 -276,548 -183,1205 234,1645 167,177 371,308 597,383 210,71 476,90 702,52 z" />
  <path
     style="fill:#053e5a;stroke:none"
     inkscape:connector-curvature="0"
     id="path3779"
     d="m 2276,3683 c -16,-4 -17,-12 -12,-56 3,-29 11,-100 17,-159 l 12,-108 h 38 c 45,0 45,-4 29,150 -18,173 -20,180 -44,179 -11,-1 -29,-3 -40,-6 z" />
  <path
     style="fill:#053e5a;stroke:none"
     inkscape:connector-curvature="0"
     id="path3781"
     d="m 2563,3682 c -7,-4 -10,-17 -6,-30 4,-18 13,-22 42,-22 44,0 81,-23 81,-51 0,-21 -20,-32 -87,-49 -67,-17 -90,-68 -58,-129 19,-38 71,-61 135,-61 43,0 51,3 46,16 -3,9 -6,20 -6,25 0,5 -16,9 -36,9 -45,0 -74,15 -74,39 0,24 17,37 60,46 78,16 121,64 105,117 -10,34 -54,76 -84,82 -61,12 -107,15 -118,8 z" />
  <path
     style="fill:#053e5a;stroke:none"
     inkscape:connector-curvature="0"
     id="path3783"
     d="m 1933,3594 -33,-14 21,-52 c 11,-29 34,-84 50,-122 16,-37 29,-72 29,-78 0,-5 -13,-14 -30,-19 -30,-11 -36,-24 -22,-47 7,-10 33,-3 115,30 93,38 106,45 100,63 -8,29 -9,29 -43,15 -18,-7 -34,-9 -39,-4 -4,5 -29,62 -55,127 -27,64 -51,117 -55,116 -3,0 -21,-7 -38,-15 z" />
  <path
     style="fill:#053e5a;stroke:none"
     inkscape:connector-curvature="0"
     id="path3785"
     d="m 3002,3497 c -16,-28 -46,-82 -67,-119 -20,-38 -39,-68 -41,-68 -3,0 -18,7 -34,15 -27,14 -30,14 -40,-4 -12,-24 -13,-31 -2,-31 5,0 50,-23 101,-52 75,-42 94,-49 102,-37 15,24 10,36 -21,49 -16,7 -30,14 -30,15 0,2 17,34 39,72 104,185 101,172 51,198 l -29,15 z" />
  <path
     style="fill:#053e5a;stroke:none"
     inkscape:connector-curvature="0"
     id="path3787"
     d="m 1648,3433 c -25,-27 -26,-30 -12,-62 8,-18 14,-34 14,-36 0,-1 -20,-19 -45,-40 -44,-35 -47,-36 -70,-21 -33,22 -48,20 -74,-8 l -23,-25 156,-78 156,-78 29,30 29,30 -58,155 c -31,85 -61,155 -67,157 -5,2 -21,-9 -35,-24 z m 39,-170 c 6,-16 18,-44 27,-65 l 16,-36 -66,36 -66,37 31,27 c 39,35 44,35 58,1 z" />
  <path
     style="fill:#053e5a;stroke:none"
     inkscape:connector-curvature="0"
     id="path3789"
     d="m 3217,3222 -117,-118 30,-29 31,-29 117,117 117,117 -30,30 -30,30 z" />
  <path
     style="fill:#053e5a;stroke:none"
     inkscape:connector-curvature="0"
     id="path3791"
     d="m 2267,3224 c -291,-52 -547,-276 -642,-559 -24,-72 -45,-171 -38,-178 8,-8 160,24 275,58 119,35 337,124 477,195 l 78,39 33,-82 c 106,-263 263,-518 431,-701 64,-70 173,-166 188,-166 13,0 85,108 124,185 64,125 82,209 82,375 -1,173 -14,230 -85,375 -170,346 -538,529 -923,459 z" />
  <path
     style="fill:#053e5a;stroke:none"
     inkscape:connector-curvature="0"
     id="path3793"
     d="m 3436,3045 c -32,-8 -61,-25 -88,-53 -52,-51 -62,-115 -30,-178 29,-57 49,-72 68,-52 14,13 13,19 -6,55 -23,46 -18,74 21,109 73,65 156,57 182,-18 4,-11 17,-18 32,-18 25,0 26,2 20,33 -9,42 -42,91 -75,110 -40,23 -71,26 -124,12 z" />
  <path
     style="fill:#053e5a;stroke:none"
     inkscape:connector-curvature="0"
     id="path3795"
     d="m 1283,3005 c -9,-19 -15,-37 -12,-39 2,-2 51,-30 109,-61 58,-31 109,-60 113,-65 5,-4 2,-22 -7,-38 -15,-30 -15,-32 5,-42 11,-7 22,-10 24,-8 8,8 105,192 105,198 0,17 -35,21 -45,5 -28,-47 -24,-48 -148,20 -65,36 -120,65 -123,65 -2,0 -12,-16 -21,-35 z" />
  <path
     style="fill:#053e5a;stroke:none"
     inkscape:connector-curvature="0"
     id="path3797"
     d="m 1178,2673 c -35,-37 -48,-73 -48,-134 0,-49 1,-50 28,-47 25,3 27,7 28,46 1,49 25,82 55,75 13,-4 24,-22 35,-60 20,-70 43,-93 93,-93 47,0 86,35 102,92 16,60 9,93 -20,93 -20,0 -23,-5 -26,-42 -4,-53 -10,-63 -41,-63 -26,0 -36,15 -54,87 -13,50 -41,73 -90,73 -26,0 -43,-7 -62,-27 z" />
  <path
     style="fill:#053e5a;stroke:none"
     inkscape:connector-curvature="0"
     id="path3799"
     d="m 3677,2688 c -14,-11 -14,-19 -4,-56 13,-49 3,-75 -31,-80 -16,-2 -31,10 -58,47 -52,74 -111,81 -157,19 -46,-61 -6,-222 41,-165 7,8 7,18 2,27 -18,27 -12,78 10,90 22,12 37,0 93,-73 24,-32 34,-37 67,-37 57,0 100,49 100,114 0,31 -29,126 -38,126 -5,0 -16,-6 -25,-12 z" />
  <path
     style="fill:#053e5a;stroke:none"
     inkscape:connector-curvature="0"
     id="path3801"
     d="m 3381,2110 c -13,-44 -22,-82 -20,-84 2,-2 71,-24 154,-49 153,-47 164,-47 165,-5 0,9 -8,19 -17,22 -122,35 -230,70 -237,76 -5,5 -1,29 8,56 13,38 13,49 4,56 -26,16 -34,6 -57,-72 z" />
  <path
     style="fill:#053e5a;stroke:none"
     inkscape:connector-curvature="0"
     id="path3803"
     d="m 1305,2118 c -71,-27 -134,-53 -138,-57 -4,-4 -3,-19 2,-33 8,-22 25,-29 140,-59 72,-18 131,-36 131,-39 0,-3 -44,-22 -97,-42 -96,-35 -112,-48 -94,-77 7,-12 36,-4 158,41 204,77 204,94 -6,147 -72,19 -131,37 -131,40 0,4 47,24 105,45 106,39 110,42 99,70 -9,23 -24,20 -169,-36 z" />
  <path
     style="fill:#053e5a;stroke:none"
     inkscape:connector-curvature="0"
     id="path3805"
     d="m 3296,1895 c -16,-25 -16,-28 3,-59 27,-44 27,-49 -11,-101 -25,-34 -38,-44 -53,-40 -64,17 -80,16 -93,-5 -7,-12 -11,-24 -9,-26 2,-2 71,-22 153,-44 82,-23 156,-43 165,-46 10,-3 23,5 33,21 17,26 17,27 -71,176 -48,82 -91,149 -94,149 -4,0 -14,-11 -23,-25 z m 86,-182 c 14,-21 30,-48 37,-60 l 11,-22 -47,15 c -27,8 -58,17 -70,20 -13,3 -23,8 -23,11 0,9 53,73 60,73 4,0 18,-17 32,-37 z" />
  <path
     style="fill:#053e5a;stroke:none"
     inkscape:connector-curvature="0"
     id="path3807"
     d="m 1574,1754 c -20,-44 -53,-118 -74,-166 l -38,-87 22,-19 c 21,-20 21,-20 178,42 87,34 159,64 162,67 3,2 -4,15 -14,28 l -18,25 -47,-18 -47,-19 -39,44 c -43,50 -45,58 -24,100 15,28 15,31 -5,56 l -20,26 z m 60,-130 c 16,-19 27,-36 25,-38 -12,-8 -129,-55 -129,-50 0,12 61,124 68,123 4,0 20,-16 36,-35 z" />
  <path
     style="fill:#053e5a;stroke:none"
     inkscape:connector-curvature="0"
     id="path3809"
     d="m 3018,1588 c -11,-9 -18,-36 -22,-83 -14,-158 -19,-200 -23,-209 -3,-4 -26,27 -50,70 -74,129 -71,126 -93,114 -11,-6 -20,-15 -20,-21 0,-8 142,-261 156,-278 2,-2 14,3 27,12 17,11 26,28 30,59 6,42 20,191 20,216 1,27 17,8 67,-82 51,-89 55,-93 77,-83 13,5 23,13 23,16 -1,14 -156,275 -165,278 -6,2 -18,-2 -27,-9 z" />
  <path
     style="fill:#053e5a;stroke:none"
     inkscape:connector-curvature="0"
     id="path3811"
     d="m 1893,1400 -67,-128 -37,18 c -34,18 -38,18 -43,3 -8,-21 -7,-22 98,-77 69,-36 92,-44 102,-35 18,15 3,35 -31,43 -14,4 -25,11 -25,17 0,6 29,66 64,134 l 65,124 -29,15 -29,14 z" />
  <path
     style="fill:#053e5a;stroke:none"
     inkscape:connector-curvature="0"
     id="path3813"
     d="m 2205,1408 c -3,-12 -18,-85 -34,-160 -24,-116 -26,-138 -14,-142 30,-12 51,-6 56,17 17,70 58,289 55,292 -2,2 -15,6 -30,10 -23,6 -28,3 -33,-17 z" />
  <path
     style="fill:#053e5a;stroke:none"
     inkscape:connector-curvature="0"
     id="path3815"
     d="m 2505,1406 c -56,-25 -79,-60 -83,-130 -5,-81 10,-127 55,-167 34,-29 40,-31 101,-27 59,4 67,7 97,39 42,46 52,108 31,182 -29,99 -113,142 -201,103 z m 123,-86 c 18,-36 23,-57 20,-102 -5,-69 -27,-98 -73,-98 -53,0 -86,53 -88,139 -2,82 20,113 76,109 39,-3 44,-7 65,-48 z" />
  <g
     id="layer3"
     fill="#a9be3b"
     stroke="none">
    <path
       d="M2270 2576 c-124 -64 -347 -145 -494 -180 l-28 -7 4 60 c3 39 0 61 -6 61 -6 0 -43 -6 -83 -14 -40 -7 -75 -11 -78 -8 -12 12 -4 -201 10 -267 69 -331 315 -584 642 -662 74 -18 110 -20 223 -17 118 4 147 9 230 37 97 33 213 93 263 137 l28 24 -33 28 c-196 161 -381 407 -521 694 -40 81 -76 147 -82 147 -5 0 -39 -15 -75 -33z"
       id="path3818" />
  </g>
</svg>
